<?xml version="1.0" encoding="UTF-8" standalone="no"?>
<!-- Created with Inkscape (http://www.inkscape.org/) -->

<svg
   width="300"
   height="35"
   viewBox="0 0 300 35"
   version="1.1"
   id="svg5"
   inkscape:version="1.1.1 (3bf5ae0d25, 2021-09-20)"
   sodipodi:docname="Logo.svg"
   xmlns:inkscape="http://www.inkscape.org/namespaces/inkscape"
   xmlns:sodipodi="http://sodipodi.sourceforge.net/DTD/sodipodi-0.dtd"
   xmlns="http://www.w3.org/2000/svg"
   xmlns:svg="http://www.w3.org/2000/svg">
  <sodipodi:namedview
     id="namedview7"
     pagecolor="#ffffff"
     bordercolor="#666666"
     borderopacity="1.0"
     inkscape:pageshadow="2"
     inkscape:pageopacity="0.0"
     inkscape:pagecheckerboard="true"
     inkscape:document-units="px"
     showgrid="true"
     units="px"
     width="793.70081px"
     inkscape:zoom="2.83"
     inkscape:cx="108.12721"
     inkscape:cy="-6.8904594"
     inkscape:window-width="2273"
     inkscape:window-height="1140"
     inkscape:window-x="0"
     inkscape:window-y="29"
     inkscape:window-maximized="1"
     inkscape:current-layer="layer1"
     objecttolerance="31.6"
     gridtolerance="10">
    <inkscape:grid
       type="xygrid"
       id="grid12451"
       dotted="false" />
  </sodipodi:namedview>
  <defs
     id="defs2" />
  <g
     inkscape:label="Layer 1"
     inkscape:groupmode="layer"
     id="layer1">
    <text
       xml:space="preserve"
       style="font-style:normal;font-weight:normal;font-size:42.6667px;line-height:1.25;font-family:sans-serif;fill:none;fill-opacity:1;stroke:none"
       x="-3.5000026"
       y="33.998413"
       id="text1725"><tspan
         sodipodi:role="line"
         id="tspan1723"
         x="-3.5000026"
         y="33.998413"
         style="font-style:normal;font-variant:normal;font-weight:normal;font-stretch:normal;font-size:42.6667px;font-family:Arimo;-inkscape-font-specification:Arimo;fill:none;fill-opacity:1">Manuel Amador</tspan></text>
    <g
       aria-label="Manuel Amador"
       id="text826"
       style="font-size:42.6667px;line-height:1.25">
      <path
         d="M 3.5416693,14.415065 V 33.998413 H -1.4901161e-8 V 4.6442245 H 5.2291705 L 13.041676,24.998406 q 0.416667,1.229168 0.791668,2.645836 0.395833,1.395834 0.520833,2.020835 0.125,-0.562501 0.416667,-1.541668 0.291667,-1.000001 0.583334,-1.916668 0.291667,-0.916668 0.416667,-1.208335 L 23.437517,4.6442245 h 5.104171 V 33.998413 H 24.958352 V 14.415065 q 0,-1.625001 0.04167,-3.187502 0.0625,-1.5625014 0.145833,-3.0625025 -0.520834,1.8541685 -0.979167,3.3333355 -0.437501,1.458335 -0.854168,2.500002 L 15.729178,33.998413 H 12.93751 L 5.2500039,13.998398 3.3958358,8.1650605 q 0.041667,1.5625012 0.083333,3.1250025 0.0625,1.562501 0.0625,3.125002 z"
         style="font-family:Arimo;-inkscape-font-specification:Arimo;fill:#0a3057"
         id="path846" />
      <path
         d="m 40.666698,34.41508 q -3.395835,0 -5.10417,-1.791668 -1.708335,-1.791668 -1.708335,-4.91667 0,-3.500003 2.291669,-5.375004 2.312501,-1.875002 7.437505,-2.000002 l 5.062504,-0.08333 v -1.229168 q 0,-2.750002 -1.166667,-3.937503 -1.166668,-1.187501 -3.66667,-1.187501 -2.520835,0 -3.666669,0.854168 -1.145834,0.854167 -1.375001,2.729168 l -3.91667,-0.354166 q 0.958334,-6.083338 9.041674,-6.083338 4.250003,0 6.395838,1.958334 2.145835,1.937502 2.145835,5.625005 v 9.70834 q 0,1.666668 0.4375,2.520835 0.4375,0.833334 1.666668,0.833334 0.583334,0 1.229167,-0.145833 v 2.333335 q -0.708333,0.166667 -1.437501,0.25 -0.729167,0.08333 -1.458334,0.08333 -2.083335,0 -3.041669,-1.083335 -0.937501,-1.104167 -1.062501,-3.437502 h -0.125 q -1.437501,2.583335 -3.354169,3.666669 -1.895835,1.062501 -4.625004,1.062501 z m 7.979173,-11.541675 -4.10417,0.08333 q -2.625002,0.02083 -4.000003,0.541667 -1.375001,0.500001 -2.104168,1.541668 -0.729167,1.041668 -0.729167,2.729169 0,1.833334 0.979167,2.833335 1.000001,1.000001 2.833336,1.000001 2.083335,0 3.666669,-0.937501 1.604168,-0.9375 2.520835,-2.562502 0.937501,-1.645834 0.937501,-3.375002 z"
         style="font-family:Arimo;-inkscape-font-specification:Arimo;fill:#0a3057"
         id="path848" />
      <path
         d="m 62.479217,20.935903 v 13.06251 h -3.750002 v -17.72918 q 0,-1.979168 -0.04167,-3.166669 -0.02083,-1.208334 -0.08333,-1.645834 h 3.54167 q 0.04167,0.395833 0.0625,1 0.04167,0.604167 0.0625,1.333335 0.02083,0.729167 0.04167,1.520834 h 0.0625 q 1.291667,-2.333335 2.979169,-3.291669 1.708334,-0.979167 4.229169,-0.979167 3.708336,0 5.416671,1.895834 1.729168,1.895835 1.729168,6.041672 V 33.998413 H 72.958392 V 19.706736 q 0,-3.229169 -1.041668,-4.500004 -1.041667,-1.270834 -3.604169,-1.270834 -2.708335,0 -4.270836,1.854168 -1.562502,1.854168 -1.562502,5.145837 z"
         style="font-family:Arimo;-inkscape-font-specification:Arimo;fill:#0a3057"
         id="path850" />
      <path
         d="m 96.625071,30.144244 q -1.291667,2.333335 -3.000002,3.312502 -1.687501,0.958334 -4.208337,0.958334 -3.708336,0 -5.437504,-1.833335 -1.708334,-1.854168 -1.708334,-6.104171 V 11.45673 h 3.770836 v 14.291677 q 0,3.375002 1.041667,4.583337 1.062501,1.187501 3.60417,1.187501 2.708335,0 4.270836,-1.854168 1.562501,-1.854169 1.562501,-5.145838 V 11.45673 h 3.750006 v 17.72918 q 0,1.958334 0.0208,3.166669 0.0417,1.208334 0.10417,1.645834 h -3.541672 q -0.02083,-0.104167 -0.08333,-0.979167 -0.04167,-0.875001 -0.08333,-2.875002 z"
         style="font-family:Arimo;-inkscape-font-specification:Arimo;fill:#0a3057"
         id="path852" />
      <path
         d="m 108.97925,23.519239 q 0,3.875002 1.60417,5.979171 1.60417,2.104168 4.6875,2.104168 2.4375,0 3.89584,-0.979167 1.47917,-0.979168 2,-2.479169 l 3.29167,0.937501 q -2.02084,5.333337 -9.18751,5.333337 -5,0 -7.625,-2.979169 -2.60417,-2.979169 -2.60417,-8.854173 0,-5.583338 2.60417,-8.562506 2.625,-2.979169 7.47917,-2.979169 4.97917,0 7.45834,3.000002 2.47917,3.000002 2.47917,8.979173 v 0.500001 z m 12.20834,-2.875003 q -0.3125,-3.562502 -1.8125,-5.187503 -1.5,-1.645835 -4.3125,-1.645835 -2.72917,0 -4.33334,1.833335 -1.58333,1.812501 -1.70833,5.000003 z"
         style="font-family:Arimo;-inkscape-font-specification:Arimo;fill:#0a3057"
         id="path854" />
      <path
         d="M 133.58344,3.0817234 V 33.998413 h -3.75001 V 3.0817234 Z"
         style="font-family:Arimo;-inkscape-font-specification:Arimo;fill:#0a3057"
         id="path856" />
      <path
         d="m 153.52096,25.415073 -3.375,8.58334 h -4.12501 L 158.00013,4.6442245 h 4.52084 l 11.79167,29.3541885 h -4.0625 l -3.35417,-8.58334 z m 6.6875,-17.7708462 q -0.35416,1.1666675 -0.85416,2.6041682 -0.47917,1.416668 -0.89584,2.500002 l -3.72917,9.562507 h 10.97918 l -3.77084,-9.687507 q -0.29167,-0.729167 -0.77083,-2.062501 -0.47917,-1.3333347 -0.95834,-2.9166692 z"
         style="font-family:Arimo;-inkscape-font-specification:Arimo;fill:#0a3057"
         id="path858" />
      <path
         d="m 181.08347,20.935903 v 13.06251 h -3.72917 v -17.72918 q 0,-1.979168 -0.0417,-3.166669 -0.0208,-1.208334 -0.0833,-1.645834 h 3.54167 q 0.0417,0.458333 0.0833,1.125 0.0417,0.666668 0.0625,1.395835 0.0208,0.708334 0.0208,1.333334 h 0.0625 q 1.20834,-2.395835 2.77084,-3.333336 1.5625,-0.9375 3.8125,-0.9375 2.5625,0 4.04167,1.020834 1.5,1.020834 2.08334,3.250002 h 0.0625 q 1.16666,-2.270835 2.8125,-3.270836 1.66667,-1 4.02084,-1 3.41667,0 4.95833,1.854168 1.5625,1.854168 1.5625,6.083338 v 15.020844 h -3.70833 V 19.706736 q 0,-3.270836 -0.89584,-4.520837 -0.89583,-1.250001 -3.22917,-1.250001 -2.45833,0 -3.83333,1.833335 -1.35417,1.812501 -1.35417,5.16667 v 13.06251 h -3.70834 V 19.706736 q 0,-3.270836 -0.89583,-4.520837 -0.89583,-1.250001 -3.22917,-1.250001 -2.39583,0 -3.79167,1.833335 -1.39583,1.833335 -1.39583,5.16667 z"
         style="font-family:Arimo;-inkscape-font-specification:Arimo;fill:#0a3057"
         id="path860" />
      <path
         d="m 218.56267,34.41508 q -3.39583,0 -5.10417,-1.791668 -1.70833,-1.791668 -1.70833,-4.91667 0,-3.500003 2.29166,-5.375004 2.31251,-1.875002 7.43751,-2.000002 l 5.0625,-0.08333 v -1.229168 q 0,-2.750002 -1.16666,-3.937503 -1.16667,-1.187501 -3.66667,-1.187501 -2.52084,0 -3.66667,0.854168 -1.14584,0.854167 -1.375,2.729168 l -3.91667,-0.354166 q 0.95833,-6.083338 9.04167,-6.083338 4.25,0 6.39584,1.958334 2.14583,1.937502 2.14583,5.625005 v 9.70834 q 0,1.666668 0.4375,2.520835 0.4375,0.833334 1.66667,0.833334 0.58334,0 1.22917,-0.145833 v 2.333335 q -0.70833,0.166667 -1.4375,0.25 -0.72917,0.08333 -1.45834,0.08333 -2.08333,0 -3.04166,-1.083335 -0.93751,-1.104167 -1.06251,-3.437502 h -0.125 q -1.4375,2.583335 -3.35416,3.666669 -1.89584,1.062501 -4.62501,1.062501 z m 7.97917,-11.541675 -4.10417,0.08333 q -2.625,0.02083 -4,0.541667 -1.375,0.500001 -2.10417,1.541668 -0.72916,1.041668 -0.72916,2.729169 0,1.833334 0.97916,2.833335 1,1.000001 2.83334,1.000001 2.08333,0 3.66667,-0.937501 1.60417,-0.9375 2.52083,-2.562502 0.9375,-1.645834 0.9375,-3.375002 z"
         style="font-family:Arimo;-inkscape-font-specification:Arimo;fill:#0a3057"
         id="path862" />
      <path
         d="m 251.0627,33.998413 q -0.0417,-0.229167 -0.10417,-0.854167 -0.0417,-0.645834 -0.0833,-1.416668 -0.0208,-0.770834 -0.0208,-1.354168 h -0.0833 q -1.04167,2.166669 -2.77083,3.104169 -1.70834,0.937501 -4.25001,0.937501 -4.27083,0 -6.29167,-2.875002 -2,-2.875002 -2,-8.70834 0,-5.895838 2.0625,-8.83334 2.08334,-2.958335 6.22917,-2.958335 2.5625,0 4.27084,0.9375 1.70833,0.937501 2.75,2.979169 h 0.0417 l -0.0417,-2.520835 V 3.0817234 h 3.75 V 29.352576 q 0,1.770835 0.0208,2.937502 0.0417,1.145835 0.10416,1.708335 z M 239.39602,22.706738 q 0,4.72917 1.25,6.770838 1.25001,2.041669 4.06251,2.041669 3.1875,0 4.625,-2.208335 1.4375,-2.208335 1.4375,-6.854172 0,-4.47917 -1.4375,-6.562505 -1.4375,-2.083335 -4.58334,-2.083335 -2.83333,0 -4.10417,2.104168 -1.25,2.083335 -1.25,6.791672 z"
         style="font-family:Arimo;-inkscape-font-specification:Arimo;fill:#0a3057"
         id="path864" />
      <path
         d="m 279.33354,22.706738 q 0,5.916671 -2.60417,8.812507 -2.60417,2.895835 -7.5625,2.895835 -4.93751,0 -7.45834,-3.000002 -2.52084,-3.020836 -2.52084,-8.70834 0,-5.833338 2.52084,-8.750007 2.54167,-2.916668 7.58334,-2.916668 5.16667,0 7.60417,2.854168 2.4375,2.833336 2.4375,8.812507 z m -3.9375,0 q 0,-4.66667 -1.39584,-6.770838 -1.375,-2.125002 -4.64583,-2.125002 -3.29167,0 -4.77084,2.166668 -1.45834,2.145835 -1.45834,6.729172 0,4.458337 1.43751,6.708338 1.45833,2.229169 4.5625,2.229169 3.375,0 4.8125,-2.166669 1.45834,-2.166668 1.45834,-6.770838 z"
         style="font-family:Arimo;-inkscape-font-specification:Arimo;fill:#0a3057"
         id="path866" />
      <path
         d="m 287.83355,22.248404 v 11.750009 h -3.75 V 16.706734 q 0,-1.187501 -0.0417,-2.500002 -0.0208,-1.312501 -0.0833,-2.750002 h 3.54167 q 0.0417,0.958334 0.0625,1.729168 0.0417,0.770833 0.0625,1.354167 0.0208,0.562501 0.0208,0.958334 0.0208,0.375001 0.0208,0.562501 h 0.0833 q 0.625,-2.041668 1.375,-3.166669 0.72916,-1.041668 1.66666,-1.437501 0.93751,-0.416667 2.31251,-0.416667 0.77083,0 1.52083,0.208333 v 3.437503 q -0.70833,-0.208334 -2,-0.208334 -2.33334,0 -3.5625,2.020835 -1.22917,2.000002 -1.22917,5.750004 z"
         style="font-family:Arimo;-inkscape-font-specification:Arimo;fill:#0a3057"
         id="path868" />
    </g>
  </g>
</svg>
